<svg width="141" height="24" viewBox="0 0 141 24" fill="none" xmlns="http://www.w3.org/2000/svg">
<rect x="0.786133" y="0.306641" width="140" height="23" fill="#161616"/>
<path d="M14.7886 13.1978H12.7231V17.3066H10.8701V6.64258H14.6201C15.8506 6.64258 16.8003 6.91846 17.4692 7.47021C18.1382 8.02197 18.4727 8.82031 18.4727 9.86523C18.4727 10.5781 18.2993 11.1763 17.9526 11.6597C17.6108 12.1382 17.1323 12.5068 16.5171 12.7656L18.9121 17.2114V17.3066H16.9272L14.7886 13.1978ZM12.7231 11.7109H14.6274C15.2524 11.7109 15.7407 11.5547 16.0923 11.2422C16.4438 10.9248 16.6196 10.4927 16.6196 9.9458C16.6196 9.37451 16.4561 8.93262 16.1289 8.62012C15.8066 8.30762 15.3232 8.14648 14.6787 8.13672H12.7231V11.7109ZM24.7935 17.3066C24.7153 17.1553 24.647 16.9087 24.5884 16.5669C24.022 17.1577 23.3286 17.4531 22.5083 17.4531C21.7124 17.4531 21.063 17.2261 20.5601 16.772C20.0571 16.3179 19.8057 15.7563 19.8057 15.0874C19.8057 14.2427 20.1182 13.5957 20.7432 13.1465C21.373 12.6924 22.2715 12.4653 23.4385 12.4653H24.5298V11.9453C24.5298 11.5352 24.415 11.208 24.1855 10.9639C23.9561 10.7148 23.6069 10.5903 23.1382 10.5903C22.7329 10.5903 22.4009 10.6929 22.1421 10.8979C21.8833 11.0981 21.7539 11.3545 21.7539 11.667H19.9741C19.9741 11.2324 20.1182 10.8271 20.4062 10.4512C20.6943 10.0703 21.085 9.77246 21.5781 9.55762C22.0762 9.34277 22.6304 9.23535 23.2407 9.23535C24.1685 9.23535 24.9082 9.46973 25.46 9.93848C26.0117 10.4023 26.2949 11.0566 26.3096 11.9014V15.4756C26.3096 16.1885 26.4097 16.7573 26.6099 17.1821V17.3066H24.7935ZM22.8379 16.0249C23.1895 16.0249 23.519 15.9395 23.8267 15.7686C24.1392 15.5977 24.3735 15.3682 24.5298 15.0801V13.5859H23.5703C22.9111 13.5859 22.4155 13.7007 22.0835 13.9302C21.7515 14.1597 21.5854 14.4844 21.5854 14.9043C21.5854 15.2461 21.6978 15.5195 21.9224 15.7246C22.1519 15.9248 22.457 16.0249 22.8379 16.0249ZM30.4038 7.45557V9.38184H31.8027V10.7002H30.4038V15.124C30.4038 15.4268 30.4624 15.6465 30.5796 15.7832C30.7017 15.915 30.9165 15.981 31.2241 15.981C31.4292 15.981 31.6367 15.9565 31.8467 15.9077V17.2847C31.4414 17.397 31.0508 17.4531 30.6748 17.4531C29.3076 17.4531 28.624 16.6987 28.624 15.1899V10.7002H27.3203V9.38184H28.624V7.45557H30.4038ZM36.6587 17.4531C35.5308 17.4531 34.6152 17.0991 33.9121 16.3911C33.2139 15.6782 32.8647 14.731 32.8647 13.5493V13.3296C32.8647 12.5386 33.0161 11.833 33.3188 11.2129C33.6265 10.5879 34.0562 10.1021 34.6079 9.75537C35.1597 9.40869 35.7749 9.23535 36.4536 9.23535C37.5327 9.23535 38.3652 9.57959 38.9512 10.2681C39.542 10.9565 39.8374 11.9307 39.8374 13.1904V13.9082H34.6592C34.7129 14.5625 34.9302 15.0801 35.311 15.4609C35.6968 15.8418 36.1802 16.0322 36.7612 16.0322C37.5767 16.0322 38.2407 15.7026 38.7534 15.0435L39.7129 15.959C39.3955 16.4326 38.9707 16.8013 38.4385 17.0649C37.9111 17.3237 37.3179 17.4531 36.6587 17.4531ZM36.4463 10.6636C35.958 10.6636 35.5625 10.8345 35.2598 11.1763C34.9619 11.5181 34.7715 11.9941 34.6885 12.6045H38.0796V12.4727C38.0405 11.877 37.8818 11.4277 37.6035 11.125C37.3252 10.8174 36.9395 10.6636 36.4463 10.6636ZM46.854 17.3066H45.0742V9.38184H46.854V17.3066ZM44.9644 7.32373C44.9644 7.05029 45.0498 6.82324 45.2207 6.64258C45.3965 6.46191 45.6455 6.37158 45.9678 6.37158C46.29 6.37158 46.5391 6.46191 46.7148 6.64258C46.8906 6.82324 46.9785 7.05029 46.9785 7.32373C46.9785 7.59229 46.8906 7.81689 46.7148 7.99756C46.5391 8.17334 46.29 8.26123 45.9678 8.26123C45.6455 8.26123 45.3965 8.17334 45.2207 7.99756C45.0498 7.81689 44.9644 7.59229 44.9644 7.32373ZM51.0288 7.45557V9.38184H52.4277V10.7002H51.0288V15.124C51.0288 15.4268 51.0874 15.6465 51.2046 15.7832C51.3267 15.915 51.5415 15.981 51.8491 15.981C52.0542 15.981 52.2617 15.9565 52.4717 15.9077V17.2847C52.0664 17.397 51.6758 17.4531 51.2998 17.4531C49.9326 17.4531 49.249 16.6987 49.249 15.1899V10.7002H47.9453V9.38184H49.249V7.45557H51.0288Z" fill="white"/>
<path d="M63.3825 17.5616L64.9875 12.7916L61.1175 10.1966H65.8575L67.5525 5.08164L69.2775 10.1966H73.9875L70.1175 12.7916L71.7525 17.5616L67.5525 14.5166L63.3825 17.5616ZM77.782 17.5616L79.387 12.7916L75.517 10.1966H80.257L81.952 5.08164L83.677 10.1966H88.387L84.517 12.7916L86.152 17.5616L81.952 14.5166L77.782 17.5616ZM92.1814 17.5616L93.7864 12.7916L89.9164 10.1966H94.6564L96.3514 5.08164L98.0764 10.1966H102.786L98.9164 12.7916L100.551 17.5616L96.3514 14.5166L92.1814 17.5616ZM106.581 17.5616L108.186 12.7916L104.316 10.1966H109.056L110.751 5.08164L112.476 10.1966H117.186L113.316 12.7916L114.951 17.5616L110.751 14.5166L106.581 17.5616ZM120.98 17.5616L122.585 12.7916L118.715 10.1966H123.455L125.15 5.08164L126.875 10.1966H131.585L127.715 12.7916L129.35 17.5616L125.15 14.5166L120.98 17.5616Z" fill="#EFD54E"/>
</svg>
