<svg width="16" height="18" viewBox="0 0 16 18" fill="none" xmlns="http://www.w3.org/2000/svg">
<path d="M1.52273 2.04634H1.97727C2.11364 2.04634 2.20455 1.95543 2.20455 1.81907C2.20455 1.68271 2.11364 1.5918 1.97727 1.5918H1.52273C0.681818 1.5918 0 2.27362 0 3.11452V15.9782C0 16.8191 0.681818 17.5009 1.52273 17.5009H14.3864C15.2273 17.5009 15.9091 16.8191 15.9091 15.9782V3.11452C15.9091 2.27362 15.2273 1.5918 14.3864 1.5918H13.8636C13.7273 1.5918 13.6364 1.68271 13.6364 1.81907C13.6364 1.95543 13.7273 2.04634 13.8636 2.04634H14.3864C14.9773 2.04634 15.4545 2.52362 15.4545 3.11452V5.90998H0.454545V3.11452C0.454545 2.52362 0.931818 2.04634 1.52273 2.04634ZM15.4545 6.36452V15.9782C15.4545 16.5691 14.9773 17.0463 14.3864 17.0463H1.52273C0.931818 17.0463 0.454545 16.5691 0.454545 15.9782V6.36452H15.4545Z" fill="#209E02"/>
<path d="M5.06836 1.81907C5.06836 1.95543 5.15927 2.04634 5.29563 2.04634H10.5911C10.7274 2.04634 10.8184 1.95543 10.8184 1.81907C10.8184 1.68271 10.7274 1.5918 10.5911 1.5918H5.29563C5.182 1.5918 5.06836 1.68271 5.06836 1.81907Z" fill="#209E02"/>
<path d="M2.95428 10.6816H4.09064C4.47701 10.6816 4.77246 10.3862 4.77246 9.99982V8.86346C4.77246 8.4771 4.47701 8.18164 4.09064 8.18164H2.95428C2.56792 8.18164 2.27246 8.4771 2.27246 8.86346V9.99982C2.27246 10.3862 2.56792 10.6816 2.95428 10.6816ZM2.72701 8.86346C2.72701 8.7271 2.81792 8.63619 2.95428 8.63619H4.09064C4.22701 8.63619 4.31792 8.7271 4.31792 8.86346V9.99982C4.31792 10.1362 4.22701 10.2271 4.09064 10.2271H2.95428C2.81792 10.2271 2.72701 10.1362 2.72701 9.99982V8.86346Z" fill="#209E02"/>
<path d="M7.27264 10.6816H8.409C8.79537 10.6816 9.09082 10.3862 9.09082 9.99982V8.86346C9.09082 8.4771 8.79537 8.18164 8.409 8.18164H7.27264C6.88627 8.18164 6.59082 8.4771 6.59082 8.86346V9.99982C6.59082 10.3862 6.88627 10.6816 7.27264 10.6816ZM7.04537 8.86346C7.04537 8.7271 7.13627 8.63619 7.27264 8.63619H8.409C8.54537 8.63619 8.63627 8.7271 8.63627 8.86346V9.99982C8.63627 10.1362 8.54537 10.2271 8.409 10.2271H7.27264C7.13627 10.2271 7.04537 10.1362 7.04537 9.99982V8.86346Z" fill="#209E02"/>
<path d="M11.591 10.6816H12.7274C13.1137 10.6816 13.4092 10.3862 13.4092 9.99982V8.86346C13.4092 8.4771 13.1137 8.18164 12.7274 8.18164H11.591C11.2046 8.18164 10.9092 8.4771 10.9092 8.86346V9.99982C10.9092 10.3862 11.2046 10.6816 11.591 10.6816ZM11.3637 8.86346C11.3637 8.7271 11.4546 8.63619 11.591 8.63619H12.7274C12.8637 8.63619 12.9546 8.7271 12.9546 8.86346V9.99982C12.9546 10.1362 12.8637 10.2271 12.7274 10.2271H11.591C11.4546 10.2271 11.3637 10.1362 11.3637 9.99982V8.86346Z" fill="#209E02"/>
<path d="M2.95428 15H4.09064C4.47701 15 4.77246 14.7045 4.77246 14.3182V13.1818C4.77246 12.7955 4.47701 12.5 4.09064 12.5H2.95428C2.56792 12.5 2.27246 12.7955 2.27246 13.1818V14.3182C2.27246 14.7045 2.56792 15 2.95428 15ZM2.72701 13.1818C2.72701 13.0455 2.81792 12.9545 2.95428 12.9545H4.09064C4.22701 12.9545 4.31792 13.0455 4.31792 13.1818V14.3182C4.31792 14.4545 4.22701 14.5455 4.09064 14.5455H2.95428C2.81792 14.5455 2.72701 14.4545 2.72701 14.3182V13.1818Z" fill="#209E02"/>
<path d="M7.27264 15H8.409C8.79537 15 9.09082 14.7045 9.09082 14.3182V13.1818C9.09082 12.7955 8.79537 12.5 8.409 12.5H7.27264C6.88627 12.5 6.59082 12.7955 6.59082 13.1818V14.3182C6.59082 14.7045 6.88627 15 7.27264 15ZM7.04537 13.1818C7.04537 13.0455 7.13627 12.9545 7.27264 12.9545H8.409C8.54537 12.9545 8.63627 13.0455 8.63627 13.1818V14.3182C8.63627 14.4545 8.54537 14.5455 8.409 14.5455H7.27264C7.13627 14.5455 7.04537 14.4545 7.04537 14.3182V13.1818Z" fill="#209E02"/>
<path d="M11.591 15H12.7274C13.1137 15 13.4092 14.7045 13.4092 14.3182V13.1818C13.4092 12.7955 13.1137 12.5 12.7274 12.5H11.591C11.2046 12.5 10.9092 12.7955 10.9092 13.1818V14.3182C10.9092 14.7045 11.2046 15 11.591 15ZM11.3637 13.1818C11.3637 13.0455 11.4546 12.9545 11.591 12.9545H12.7274C12.8637 12.9545 12.9546 13.0455 12.9546 13.1818V14.3182C12.9546 14.4545 12.8637 14.5455 12.7274 14.5455H11.591C11.4546 14.5455 11.3637 14.4545 11.3637 14.3182V13.1818Z" fill="#209E02"/>
<path d="M11.3633 0.681818V2.95455C11.3633 3.34091 11.6587 3.63636 12.0451 3.63636H12.4996C12.886 3.63636 13.1815 3.34091 13.1815 2.95455V0.681818C13.1815 0.295455 12.886 0 12.4996 0H12.0451C11.6587 0 11.3633 0.295455 11.3633 0.681818ZM12.7269 0.681818V2.95455C12.7269 3.09091 12.636 3.18182 12.4996 3.18182H12.0451C11.9087 3.18182 11.8178 3.09091 11.8178 2.95455V0.681818C11.8178 0.545455 11.9087 0.454545 12.0451 0.454545H12.4996C12.636 0.454545 12.7269 0.545455 12.7269 0.681818Z" fill="#209E02"/>
<path d="M3.8639 3.63636C4.25027 3.63636 4.54572 3.34091 4.54572 2.95455V0.681818C4.54572 0.295455 4.25027 0 3.8639 0H3.40936C3.02299 0 2.72754 0.295455 2.72754 0.681818V2.95455C2.72754 3.34091 3.02299 3.63636 3.40936 3.63636H3.8639ZM3.18208 2.95455V0.681818C3.18208 0.545455 3.27299 0.454545 3.40936 0.454545H3.8639C4.00027 0.454545 4.09118 0.545455 4.09118 0.681818V2.95455C4.09118 3.09091 4.00027 3.18182 3.8639 3.18182H3.40936C3.27299 3.18182 3.18208 3.09091 3.18208 2.95455Z" fill="#209E02"/>
</svg>
