<svg width="16" height="18" viewBox="0 0 16 18" fill="none" xmlns="http://www.w3.org/2000/svg">
<path d="M1.52273 2.04537H1.97727C2.11364 2.04537 2.20455 1.95446 2.20455 1.81809C2.20455 1.68173 2.11364 1.59082 1.97727 1.59082H1.52273C0.681818 1.59082 0 2.27264 0 3.11355V15.9772C0 16.8181 0.681818 17.4999 1.52273 17.4999H14.3864C15.2273 17.4999 15.9091 16.8181 15.9091 15.9772V3.11355C15.9091 2.27264 15.2273 1.59082 14.3864 1.59082H13.8636C13.7273 1.59082 13.6364 1.68173 13.6364 1.81809C13.6364 1.95446 13.7273 2.04537 13.8636 2.04537H14.3864C14.9773 2.04537 15.4545 2.52264 15.4545 3.11355V5.909H0.454545V3.11355C0.454545 2.52264 0.931818 2.04537 1.52273 2.04537ZM15.4545 6.36355V15.9772C15.4545 16.5681 14.9773 17.0454 14.3864 17.0454H1.52273C0.931818 17.0454 0.454545 16.5681 0.454545 15.9772V6.36355H15.4545Z" fill="#209E02"/>
<path d="M5.06836 1.81809C5.06836 1.95446 5.15927 2.04537 5.29563 2.04537H10.5911C10.7274 2.04537 10.8184 1.95446 10.8184 1.81809C10.8184 1.68173 10.7274 1.59082 10.5911 1.59082H5.29563C5.182 1.59082 5.06836 1.68173 5.06836 1.81809Z" fill="#209E02"/>
<path d="M2.95526 10.6816H4.09162C4.47798 10.6816 4.77344 10.3862 4.77344 9.99982V8.86346C4.77344 8.4771 4.47798 8.18164 4.09162 8.18164H2.95526C2.56889 8.18164 2.27344 8.4771 2.27344 8.86346V9.99982C2.27344 10.3862 2.56889 10.6816 2.95526 10.6816ZM2.72798 8.86346C2.72798 8.7271 2.81889 8.63619 2.95526 8.63619H4.09162C4.22798 8.63619 4.31889 8.7271 4.31889 8.86346V9.99982C4.31889 10.1362 4.22798 10.2271 4.09162 10.2271H2.95526C2.81889 10.2271 2.72798 10.1362 2.72798 9.99982V8.86346Z" fill="#209E02"/>
<path d="M7.27362 10.6816H8.40998C8.79634 10.6816 9.0918 10.3862 9.0918 9.99982V8.86346C9.0918 8.4771 8.79634 8.18164 8.40998 8.18164H7.27362C6.88725 8.18164 6.5918 8.4771 6.5918 8.86346V9.99982C6.5918 10.3862 6.88725 10.6816 7.27362 10.6816ZM7.04634 8.86346C7.04634 8.7271 7.13725 8.63619 7.27362 8.63619H8.40998C8.54634 8.63619 8.63725 8.7271 8.63725 8.86346V9.99982C8.63725 10.1362 8.54634 10.2271 8.40998 10.2271H7.27362C7.13725 10.2271 7.04634 10.1362 7.04634 9.99982V8.86346Z" fill="#209E02"/>
<path d="M11.59 10.6816H12.7264C13.1127 10.6816 13.4082 10.3862 13.4082 9.99982V8.86346C13.4082 8.4771 13.1127 8.18164 12.7264 8.18164H11.59C11.2037 8.18164 10.9082 8.4771 10.9082 8.86346V9.99982C10.9082 10.3862 11.2037 10.6816 11.59 10.6816ZM11.3627 8.86346C11.3627 8.7271 11.4537 8.63619 11.59 8.63619H12.7264C12.8627 8.63619 12.9537 8.7271 12.9537 8.86346V9.99982C12.9537 10.1362 12.8627 10.2271 12.7264 10.2271H11.59C11.4537 10.2271 11.3627 10.1362 11.3627 9.99982V8.86346Z" fill="#209E02"/>
<path d="M2.95526 15H4.09162C4.47798 15 4.77344 14.7045 4.77344 14.3182V13.1818C4.77344 12.7955 4.47798 12.5 4.09162 12.5H2.95526C2.56889 12.5 2.27344 12.7955 2.27344 13.1818V14.3182C2.27344 14.7045 2.56889 15 2.95526 15ZM2.72798 13.1818C2.72798 13.0455 2.81889 12.9545 2.95526 12.9545H4.09162C4.22798 12.9545 4.31889 13.0455 4.31889 13.1818V14.3182C4.31889 14.4545 4.22798 14.5455 4.09162 14.5455H2.95526C2.81889 14.5455 2.72798 14.4545 2.72798 14.3182V13.1818Z" fill="#209E02"/>
<path d="M7.27362 15H8.40998C8.79634 15 9.0918 14.7045 9.0918 14.3182V13.1818C9.0918 12.7955 8.79634 12.5 8.40998 12.5H7.27362C6.88725 12.5 6.5918 12.7955 6.5918 13.1818V14.3182C6.5918 14.7045 6.88725 15 7.27362 15ZM7.04634 13.1818C7.04634 13.0455 7.13725 12.9545 7.27362 12.9545H8.40998C8.54634 12.9545 8.63725 13.0455 8.63725 13.1818V14.3182C8.63725 14.4545 8.54634 14.5455 8.40998 14.5455H7.27362C7.13725 14.5455 7.04634 14.4545 7.04634 14.3182V13.1818Z" fill="#209E02"/>
<path d="M11.59 15H12.7264C13.1127 15 13.4082 14.7045 13.4082 14.3182V13.1818C13.4082 12.7955 13.1127 12.5 12.7264 12.5H11.59C11.2037 12.5 10.9082 12.7955 10.9082 13.1818V14.3182C10.9082 14.7045 11.2037 15 11.59 15ZM11.3627 13.1818C11.3627 13.0455 11.4537 12.9545 11.59 12.9545H12.7264C12.8627 12.9545 12.9537 13.0455 12.9537 13.1818V14.3182C12.9537 14.4545 12.8627 14.5455 12.7264 14.5455H11.59C11.4537 14.5455 11.3627 14.4545 11.3627 14.3182V13.1818Z" fill="#209E02"/>
<path d="M11.3633 0.681818V2.95455C11.3633 3.34091 11.6587 3.63636 12.0451 3.63636H12.4996C12.886 3.63636 13.1815 3.34091 13.1815 2.95455V0.681818C13.1815 0.295455 12.886 0 12.4996 0H12.0451C11.6587 0 11.3633 0.295455 11.3633 0.681818ZM12.7269 0.681818V2.95455C12.7269 3.09091 12.636 3.18182 12.4996 3.18182H12.0451C11.9087 3.18182 11.8178 3.09091 11.8178 2.95455V0.681818C11.8178 0.545455 11.9087 0.454545 12.0451 0.454545H12.4996C12.636 0.454545 12.7269 0.545455 12.7269 0.681818Z" fill="#209E02"/>
<path d="M3.86293 3.63636C4.24929 3.63636 4.54474 3.34091 4.54474 2.95455V0.681818C4.54474 0.295455 4.24929 0 3.86293 0H3.40838C3.02202 0 2.72656 0.295455 2.72656 0.681818V2.95455C2.72656 3.34091 3.02202 3.63636 3.40838 3.63636H3.86293ZM3.18111 2.95455V0.681818C3.18111 0.545455 3.27202 0.454545 3.40838 0.454545H3.86293C3.99929 0.454545 4.0902 0.545455 4.0902 0.681818V2.95455C4.0902 3.09091 3.99929 3.18182 3.86293 3.18182H3.40838C3.27202 3.18182 3.18111 3.09091 3.18111 2.95455Z" fill="#209E02"/>
</svg>
