<svg width="59" height="59" viewBox="0 0 59 59" fill="none" xmlns="http://www.w3.org/2000/svg">
<circle cx="29.9688" cy="29.2427" r="29" fill="#F1F2F1"/>
<circle cx="30.3945" cy="28.8162" r="21.75" fill="#209E02"/>
<g clip-path="url(#clip0)">
<path d="M30.3958 14.7427C22.6237 14.7427 16.3223 21.0441 16.3223 28.8162C16.3223 36.5883 22.6237 42.8897 30.3958 42.8897C38.1679 42.8897 44.4693 36.5883 44.4693 28.8162C44.4693 21.0441 38.1679 14.7427 30.3958 14.7427ZM42.0639 27.6434H39.6961C39.1671 23.4014 35.8106 20.0449 31.5686 19.5148V17.1481C37.1007 17.6993 41.5127 22.1113 42.0639 27.6434ZM37.327 29.989C36.8297 32.9292 34.5088 35.2502 31.5686 35.7474V32.3346H29.223V35.7474C26.2828 35.2502 23.9618 32.9292 23.4646 29.989H26.8774V27.6434H23.4646C23.9618 24.7032 26.2828 22.3823 29.223 21.885V25.2978H31.5686V21.885C34.5088 22.3811 36.8297 24.702 37.327 27.6434H33.9142V29.989H37.327ZM29.223 17.1481V19.5159C24.981 20.0449 21.6245 23.4014 21.0944 27.6434H18.7277C19.2789 22.1113 23.6909 17.6993 29.223 17.1481ZM18.7277 29.989H21.0955C21.6256 34.231 24.981 37.5875 29.2242 38.1176V40.4855C23.6909 39.9331 19.2789 35.5211 18.7277 29.989V29.989ZM31.5686 40.4843V38.1165C35.8106 37.5864 39.1671 34.231 39.6972 29.9878H42.0651C41.5127 35.5211 37.1007 39.9331 31.5686 40.4843Z" fill="white"/>
</g>
<defs>
<clipPath id="clip0">
<rect width="28.1471" height="28.1471" fill="white" transform="translate(16.3223 14.7427)"/>
</clipPath>
</defs>
</svg>
