<svg width="59" height="59" viewBox="0 0 59 59" fill="none" xmlns="http://www.w3.org/2000/svg">
<circle cx="29.9688" cy="29.1931" r="29" fill="#F1F2F1"/>
<circle cx="29.9694" cy="29.1931" r="22.1765" fill="#209E02"/>
<path d="M40.1962 31.1596H31.743L33.3606 28.6288H40.1962C41.3963 28.6288 42.3616 27.6635 42.3616 26.4634C42.3616 25.2632 41.3963 24.2979 40.1962 24.2979H36.1522L37.7437 21.8454C38.396 20.8279 38.109 19.4973 37.0915 18.8451C36.074 18.1928 34.7434 18.4798 34.0911 19.4973L30.9864 24.2718H19.7416C18.5415 24.2718 17.5762 25.2371 17.5762 26.4373C17.5762 27.6374 18.5415 28.6027 19.7416 28.6027H28.1948L26.5772 31.1596H19.7416C18.5415 31.1596 17.5762 32.1249 17.5762 33.325C17.5762 34.5252 18.5415 35.4905 19.7416 35.4905H23.7856L22.1941 37.9429C21.5418 38.9605 21.8288 40.291 22.8463 40.9433C23.2116 41.1781 23.603 41.2825 24.0204 41.2825C24.7248 41.2825 25.4293 40.9433 25.8467 40.291L28.9253 35.4905H40.1701C41.3702 35.4905 42.3356 34.5252 42.3356 33.325C42.3616 32.1249 41.3963 31.1596 40.1962 31.1596Z" fill="white"/>
</svg>
