<svg width="91" height="89" viewBox="0 0 91 89" fill="none" xmlns="http://www.w3.org/2000/svg">
<path d="M45.9101 0.1875C20.811 0.38425 0.711643 20.3544 0.911636 44.7514C1.11163 68.9517 21.2109 88.725 45.9101 88.725H46.2101C58.2097 88.6267 69.5093 84.003 77.909 75.5428C86.3087 67.0825 91.0086 55.9662 90.9086 44.1611C90.7086 19.9609 70.6093 0.1875 45.9101 0.1875ZM73.6092 71.411C66.3094 78.6908 56.5098 82.7242 46.1101 82.8225H45.9101C24.6108 82.8225 7.11143 65.7053 7.01143 44.7514C6.91143 23.6008 24.2108 6.38513 45.7101 6.18838C67.3094 6.18838 84.7088 23.3056 84.9088 44.2595C84.9088 54.4905 80.9089 64.1313 73.6092 71.411Z" fill="#209E02"/>
<path d="M58.607 39.3417H50.5072L56.107 21.4375C56.407 20.5521 56.207 19.6667 55.7071 18.8797C55.2071 18.1911 54.3071 17.6992 53.4071 17.6992H40.9076C39.5076 17.6992 38.4076 18.5846 38.1076 19.9618L33.2078 41.506C33.0078 42.3914 33.2078 43.2767 33.8078 43.867C34.4078 44.5556 35.2077 44.9491 36.1077 44.9491H42.7075L34.9078 70.0347C34.5078 71.412 35.1077 72.7892 36.4077 73.3795C36.8077 73.5762 37.3077 73.6746 37.7077 73.6746C38.6076 73.6746 39.5076 73.2811 40.1076 72.4941L60.9069 43.867C61.5069 42.9816 61.6069 41.8995 61.1069 40.9157C60.6069 39.932 59.6069 39.3417 58.607 39.3417Z" fill="#209E02"/>
</svg>
