<svg width="68" height="66" viewBox="0 0 68 66" fill="none" xmlns="http://www.w3.org/2000/svg">
<path d="M34.0003 0.104004C15.4263 0.249604 0.552314 15.028 0.700314 33.0824C0.848314 50.9912 15.7223 65.624 34.0003 65.624H34.2223C43.1023 65.5512 51.4643 62.1296 57.6803 55.8688C63.8963 49.608 67.3743 41.3816 67.3003 32.6456C67.1523 14.7368 52.2783 0.104004 34.0003 0.104004ZM54.4983 52.8112C49.0963 58.1984 41.8443 61.1832 34.1483 61.256H34.0003C18.2383 61.256 5.28831 48.5888 5.21431 33.0824C5.14031 17.4304 17.9423 4.6904 33.8523 4.5448C49.8363 4.5448 62.7123 17.212 62.8603 32.7184C62.8603 40.2896 59.9003 47.424 54.4983 52.8112Z" fill="#209E02"/>
<path d="M43.3984 29.0783H37.4044L41.5484 15.8287C41.7704 15.1735 41.6224 14.5183 41.2524 13.9359C40.8824 13.4263 40.2164 13.0623 39.5504 13.0623H30.3004C29.2644 13.0623 28.4504 13.7175 28.2284 14.7367L24.6024 30.6799C24.4544 31.3351 24.6024 31.9903 25.0464 32.4271C25.4904 32.9367 26.0824 33.2279 26.7484 33.2279H31.6324L25.8604 51.7919C25.5644 52.8111 26.0084 53.8303 26.9704 54.2671C27.2664 54.4127 27.6364 54.4854 27.9324 54.4854C28.5984 54.4854 29.2644 54.1943 29.7084 53.6119L45.1004 32.4271C45.5444 31.7719 45.6184 30.9711 45.2484 30.2431C44.8784 29.5151 44.1384 29.0783 43.3984 29.0783Z" fill="#209E02"/>
</svg>
