<svg width="15" height="13" viewBox="0 0 15 13" fill="none" xmlns="http://www.w3.org/2000/svg">
<path d="M13.3089 2.49111H8.03571V2.19904C8.03524 1.72995 7.8573 1.28022 7.54094 0.948522C7.22457 0.616827 6.79562 0.430263 6.34821 0.429768H1.70536C1.48232 0.427543 1.26107 0.47165 1.05437 0.559544C0.847677 0.647438 0.65963 0.777379 0.501083 0.941868C0.342536 1.10636 0.216627 1.30214 0.130624 1.51791C0.0446211 1.73369 0.000225685 1.96518 0 2.19904V11.2307C0.000472697 11.6998 0.178414 12.1495 0.494779 12.4812C0.811145 12.8129 1.24009 12.9995 1.6875 13H13.3089C13.5308 13.0002 13.7505 12.9547 13.9555 12.8659C14.1606 12.7771 14.3469 12.6469 14.504 12.4826C14.661 12.3183 14.7856 12.1232 14.8707 11.9084C14.9558 11.6936 14.9998 11.4633 15 11.2307V4.26225C14.9995 3.79234 14.8212 3.34185 14.5041 3.00975C14.187 2.67765 13.7571 2.49111 13.3089 2.49111Z" fill="#414143"/>
</svg>
