<svg width="15" height="15" viewBox="0 0 15 15" fill="none" xmlns="http://www.w3.org/2000/svg">
<path d="M7.5 1.35188C9.5025 1.35188 9.74 1.35938 10.5313 1.39563C12.5638 1.48813 13.5131 2.4525 13.6056 4.47C13.6419 5.26062 13.6487 5.49813 13.6487 7.50063C13.6487 9.50375 13.6412 9.74063 13.6056 10.5313C13.5125 12.5469 12.5656 13.5131 10.5313 13.6056C9.74 13.6419 9.50375 13.6494 7.5 13.6494C5.4975 13.6494 5.26 13.6419 4.46938 13.6056C2.43188 13.5125 1.4875 12.5438 1.395 10.5306C1.35875 9.74 1.35125 9.50312 1.35125 7.5C1.35125 5.4975 1.35938 5.26063 1.395 4.46938C1.48813 2.4525 2.435 1.4875 4.46938 1.395C5.26063 1.35938 5.4975 1.35188 7.5 1.35188V1.35188ZM7.5 0C5.46312 0 5.20812 0.00875 4.40812 0.045C1.68438 0.17 0.170625 1.68125 0.045625 4.4075C0.00875 5.20813 0 5.46312 0 7.5C0 9.53688 0.00875 9.7925 0.045 10.5925C0.17 13.3162 1.68125 14.83 4.4075 14.955C5.20813 14.9912 5.46312 15 7.5 15C9.53688 15 9.7925 14.9912 10.5925 14.955C13.3138 14.83 14.8313 13.3187 14.9544 10.5925C14.9913 9.7925 15 9.53688 15 7.5C15 5.46312 14.9912 5.20812 14.955 4.40812C14.8325 1.68687 13.3194 0.170625 10.5931 0.045625C9.7925 0.00875 9.53688 0 7.5 0V0ZM7.5 3.64875C5.37312 3.64875 3.64875 5.37312 3.64875 7.5C3.64875 9.62688 5.37312 11.3519 7.5 11.3519C9.62688 11.3519 11.3513 9.6275 11.3513 7.5C11.3513 5.37312 9.62688 3.64875 7.5 3.64875ZM7.5 10C6.11937 10 5 8.88125 5 7.5C5 6.11937 6.11937 5 7.5 5C8.88063 5 10 6.11937 10 7.5C10 8.88125 8.88063 10 7.5 10ZM11.5038 2.59688C11.0063 2.59688 10.6031 3 10.6031 3.49687C10.6031 3.99375 11.0063 4.39687 11.5038 4.39687C12.0006 4.39687 12.4031 3.99375 12.4031 3.49687C12.4031 3 12.0006 2.59688 11.5038 2.59688Z" fill="#F1F2F1"/>
</svg>
