<svg width="21" height="21" viewBox="0 0 21 21" fill="none" xmlns="http://www.w3.org/2000/svg">
<path d="M10.4848 8.96831C9.39012 8.96831 8.49929 9.85913 8.49929 10.9538C8.49929 12.0485 9.39012 12.9394 10.4848 12.9394C11.5795 12.9394 12.4703 12.0485 12.4703 10.9538C12.4703 9.85913 11.5795 8.96831 10.4848 8.96831Z" fill="#414143"/>
<path d="M13.8886 6.13184H7.04324C6.26129 6.13184 5.625 6.76812 5.625 7.55007V14.3954C5.625 15.1774 6.26129 15.8137 7.04324 15.8137H13.8886C14.6705 15.8137 15.3068 15.1774 15.3068 14.3954V7.55007C15.3068 6.76812 14.6705 6.13184 13.8886 6.13184ZM10.4848 13.5067C9.07715 13.5067 7.932 12.3615 7.932 10.9538C7.932 9.54616 9.07715 8.40101 10.4848 8.40101C11.8925 8.40101 13.0376 9.54616 13.0376 10.9538C13.0376 12.3615 11.8925 13.5067 10.4848 13.5067ZM13.3213 8.96831C12.8521 8.96831 12.4703 8.58656 12.4703 8.11736C12.4703 7.64817 12.8521 7.26642 13.3213 7.26642C13.7905 7.26642 14.1722 7.64817 14.1722 8.11736C14.1722 8.58656 13.7905 8.96831 13.3213 8.96831Z" fill="#414143"/>
<circle cx="10.6135" cy="10.6003" r="9.18182" stroke="#414143"/>
</svg>
