<svg width="16" height="18" viewBox="0 0 16 18" fill="none" xmlns="http://www.w3.org/2000/svg">
<g clip-path="url(#clip0)">
<path d="M1.06717 7.03892L6.83472 3.67231L12.6038 0.302646C12.9481 0.101758 13.3386 -0.00397069 13.7362 -0.00390632C14.1338 -0.00384195 14.5243 0.102013 14.8686 0.303013C15.2128 0.504012 15.4986 0.79307 15.6972 1.14111C15.8958 1.48916 16.0003 1.88392 16 2.2857L16 15.7476C16 16.3544 15.7615 16.9364 15.3368 17.3655C14.9122 17.7946 14.3363 18.0357 13.7358 18.0357C13.3399 18.0366 12.9508 17.9314 12.6083 17.7306L6.83472 14.3671L1.06717 11.002C0.723003 10.8011 0.437207 10.5123 0.238504 10.1645C0.0398021 9.81663 -0.0648045 9.42207 -0.0648045 9.02044C-0.0648045 8.61881 0.0398022 8.22425 0.238504 7.87643C0.437207 7.5286 0.723003 7.23975 1.06717 7.03892Z" fill="black"/>
</g>
<defs>
<clipPath id="clip0">
<rect width="18" height="16" fill="white" transform="translate(16) rotate(90)"/>
</clipPath>
</defs>
</svg>
