<svg width="17" height="18" viewBox="0 0 17 18" fill="none" xmlns="http://www.w3.org/2000/svg">
<g clip-path="url(#clip0)">
<path d="M11.9371 0.458984H6.54148C3.75127 0.458984 1.45996 2.71817 1.45996 5.51V9.91817C1.45996 10.3222 1.79257 10.6529 2.19909 10.6529C2.60561 10.6529 2.93822 10.3222 2.93822 9.91817V5.51C2.93822 3.5447 4.54583 1.94674 6.52301 1.94674H11.9002C13.9143 1.94674 15.5219 3.5447 15.5219 5.51V9.36715C15.5219 11.3325 13.9143 12.9304 11.9371 12.9304H5.26648L7.50235 10.708C7.798 10.4141 7.798 9.9549 7.50235 9.66102C7.2067 9.36715 6.74474 9.36715 6.44909 9.66102L2.93822 13.1508C2.64257 13.4447 2.64257 13.9039 2.93822 14.1978L6.44909 17.6876C6.59692 17.8345 6.7817 17.908 6.98496 17.908C7.16974 17.908 7.373 17.8345 7.52083 17.6876C7.81648 17.3937 7.81648 16.9345 7.52083 16.6406L5.26648 14.4182H11.9371C14.7458 14.4182 17.0187 12.159 17.0187 9.36715V5.51C17.0187 2.71817 14.7274 0.458984 11.9371 0.458984Z" fill="#414143"/>
</g>
<defs>
<clipPath id="clip0">
<rect width="17" height="18" fill="white"/>
</clipPath>
</defs>
</svg>
