<svg width="91" height="89" viewBox="0 0 91 89" fill="none" xmlns="http://www.w3.org/2000/svg">
<path d="M86.9309 44.4156L81.0844 43.2335L78.3439 34.9588C77.339 32.049 74.5985 30.0486 71.4925 30.0486H66.8336V25.7748C66.8336 24.229 65.5547 23.0469 64.093 23.0469H27.8265C26.2735 23.0469 25.0859 24.3199 25.0859 25.7748V55.782C25.0859 57.3278 26.3649 58.5099 27.8265 58.5099H30.8411C30.8411 62.8746 34.4038 66.33 38.6973 66.33C42.9908 66.33 46.5535 62.7837 46.5535 58.5099H67.5644C67.5644 62.8746 71.1271 66.33 75.4206 66.33C79.8055 66.33 83.2769 62.7837 83.2769 58.5099H86.2915C87.8444 58.5099 89.032 57.2369 89.032 55.782V47.0526C89.1234 45.7796 88.2098 44.6884 86.9309 44.4156ZM38.6973 62.2381C36.6876 62.2381 34.9519 60.6014 34.9519 58.5099C34.9519 56.5095 36.5962 54.7818 38.6973 54.7818C40.7984 54.7818 42.4427 56.4185 42.4427 58.5099C42.4427 60.6014 40.7984 62.2381 38.6973 62.2381ZM66.8336 42.5061V34.1405H71.4925C72.7714 34.1405 73.959 34.9588 74.4158 36.2319L76.5168 42.5061H66.8336ZM75.512 62.2381C73.5023 62.2381 71.7666 60.6014 71.7666 58.5099C71.7666 56.5095 73.4109 54.7818 75.512 54.7818C77.5217 54.7818 79.2574 56.4185 79.2574 58.5099C79.166 60.6014 77.5217 62.2381 75.512 62.2381Z" fill="#209E02"/>
<path d="M18.4138 29.4141H4.52837C3.3408 29.4141 2.33594 30.4143 2.33594 31.5964C2.33594 32.7785 3.3408 33.7787 4.52837 33.7787H18.4138C19.6014 33.7787 20.6062 32.7785 20.6062 31.5964C20.6062 30.4143 19.6927 29.4141 18.4138 29.4141Z" fill="#209E02"/>
<path d="M18.4151 38.5977H8.00103C6.81346 38.5977 5.80859 39.5979 5.80859 40.78C5.80859 41.9621 6.81346 42.9623 8.00103 42.9623H18.4151C19.6027 42.9623 20.6075 41.9621 20.6075 40.78C20.6989 39.507 19.694 38.5977 18.4151 38.5977Z" fill="#209E02"/>
<path d="M18.4164 47.6914H11.4737C10.2861 47.6914 9.28125 48.6916 9.28125 49.8738C9.28125 51.0559 10.2861 52.0561 11.4737 52.0561H18.4164C19.604 52.0561 20.6088 51.0559 20.6088 49.8738C20.6088 48.6916 19.6953 47.6914 18.4164 47.6914Z" fill="#209E02"/>
</svg>
