<svg width="133" height="67" viewBox="0 0 133 67" fill="none" xmlns="http://www.w3.org/2000/svg">
<path d="M128.962 32.9135L120.112 31.124L115.963 18.5982C114.442 14.1935 110.294 11.1652 105.592 11.1652H98.5394V4.69582C98.5394 2.35582 96.6034 0.566406 94.3909 0.566406H39.4923C37.1414 0.566406 35.3438 2.49346 35.3438 4.69582V50.1193C35.3438 52.4593 37.2797 54.2487 39.4923 54.2487H44.0556C44.0556 60.8558 49.4487 66.0864 55.948 66.0864C62.4474 66.0864 67.8404 60.7182 67.8404 54.2487H99.6457C99.6457 60.8558 105.039 66.0864 111.538 66.0864C118.176 66.0864 123.43 60.7182 123.43 54.2487H127.994C130.345 54.2487 132.142 52.3217 132.142 50.1193V36.9052C132.281 34.9782 130.898 33.3264 128.962 32.9135ZM55.948 59.8923C52.9058 59.8923 50.2784 57.4146 50.2784 54.2487C50.2784 51.2205 52.7675 48.6052 55.948 48.6052C59.1285 48.6052 61.6177 51.0829 61.6177 54.2487C61.6177 57.4146 59.1285 59.8923 55.948 59.8923ZM98.5394 30.0229V17.3593H105.592C107.528 17.3593 109.326 18.5982 110.017 20.5252L113.197 30.0229H98.5394ZM111.676 59.8923C108.634 59.8923 106.007 57.4146 106.007 54.2487C106.007 51.2205 108.496 48.6052 111.676 48.6052C114.719 48.6052 117.346 51.0829 117.346 54.2487C117.208 57.4146 114.719 59.8923 111.676 59.8923Z" fill="#209E02"/>
<path d="M25.2481 10.2031H4.22897C2.43128 10.2031 0.910156 11.7172 0.910156 13.5067C0.910156 15.2961 2.43128 16.8102 4.22897 16.8102H25.2481C27.0458 16.8102 28.5669 15.2961 28.5669 13.5067C28.5669 11.7172 27.1841 10.2031 25.2481 10.2031Z" fill="#209E02"/>
<path d="M25.2472 24.1055H9.48287C7.68518 24.1055 6.16406 25.6196 6.16406 27.409C6.16406 29.1984 7.68518 30.7125 9.48287 30.7125H25.2472C27.0449 30.7125 28.566 29.1984 28.566 27.409C28.7043 25.4819 27.1832 24.1055 25.2472 24.1055Z" fill="#209E02"/>
<path d="M25.2502 37.8672H14.7407C12.943 37.8672 11.4219 39.3813 11.4219 41.1707C11.4219 42.9601 12.943 44.4742 14.7407 44.4742H25.2502C27.0479 44.4742 28.5691 42.9601 28.5691 41.1707C28.5691 39.3813 27.1862 37.8672 25.2502 37.8672Z" fill="#209E02"/>
</svg>
