<svg width="91" height="90" viewBox="0 0 91 90" fill="none" xmlns="http://www.w3.org/2000/svg">
<path d="M42.6328 65.5234L47.1328 89.1342H82.6828L87.1828 65.5234H42.6328ZM57.3328 83.2315H54.3328V68.4748H57.3328V83.2315ZM66.3328 83.2315H63.3328V68.4748H66.3328V83.2315ZM75.3328 83.2315H72.3328V68.4748H75.3328V83.2315Z" fill="#209E02"/>
<path d="M39.4859 65.5233H36.3359V50.7665H43.5359L51.3359 43.0931V19.4823L25.8359 0.59375L0.335938 19.4823V80.28H42.3359L39.4859 65.5233ZM25.8359 15.7932C24.1859 15.7932 22.8359 14.4651 22.8359 12.8418C22.8359 11.2186 24.1859 9.89047 25.8359 9.89047C27.4859 9.89047 28.8359 11.2186 28.8359 12.8418C28.8359 14.4651 27.4859 15.7932 25.8359 15.7932Z" fill="#209E02"/>
<path d="M84.9359 53.7155L68.8859 37.9258L66.7859 39.9917L80.7359 53.7155H48.9359L62.8859 39.9917L60.7859 37.9258L44.7359 53.7155H39.3359V62.5695H90.3359V53.7155H84.9359Z" fill="#209E02"/>
</svg>
