<svg width="65" height="66" viewBox="0 0 65 66" fill="none" xmlns="http://www.w3.org/2000/svg">
<path d="M30.6758 48.2773L33.9032 65.7494H59.3999L62.6273 48.2773H30.6758ZM41.2187 61.3814H39.0671V50.4613H41.2187V61.3814ZM47.6735 61.3814H45.5219V50.4613H47.6735V61.3814ZM54.1284 61.3814H51.9768V50.4613H54.1284V61.3814Z" fill="#209E02"/>
<path d="M28.4145 48.2786H26.1553V37.3586H31.3192L36.9134 31.6802V14.2081L18.6247 0.230469L0.335938 14.2081V59.1986H30.4586L28.4145 48.2786ZM18.6247 11.4781C17.4413 11.4781 16.4731 10.4953 16.4731 9.29409C16.4731 8.09289 17.4413 7.11009 18.6247 7.11009C19.8081 7.11009 20.7763 8.09289 20.7763 9.29409C20.7763 10.4953 19.8081 11.4781 18.6247 11.4781Z" fill="#209E02"/>
<path d="M61.0132 39.5438L49.502 27.8594L47.9959 29.3882L58.0009 39.5438H35.1938L45.1988 29.3882L43.6926 27.8594L32.1815 39.5438H28.3086V46.0958H64.8861V39.5438H61.0132Z" fill="#209E02"/>
</svg>
