<svg width="59" height="59" viewBox="0 0 59 59" fill="none" xmlns="http://www.w3.org/2000/svg">
<circle cx="29.9688" cy="29.6882" r="29" fill="#F1F2F1"/>
<circle cx="29.97" cy="29.6883" r="21.3235" fill="#209E02"/>
<g clip-path="url(#clip0)">
<path d="M38.3316 30.6032V35.9006C38.3316 38.7793 32.2805 40.1413 28.9241 40.1413C25.7339 40.1413 19.5167 38.6862 19.5167 35.9006V29.3217L28.9241 34.4048L38.3316 30.6032V30.6032ZM29.8826 19.2358L16.3809 25.2461L28.9241 32.0404L40.4221 27.4234V34.9149H42.5126V26.2914L29.8826 19.2358ZM43.5579 40.1413H39.3768C39.981 39.096 40.4221 37.5281 40.4221 35.9602H42.5126C42.5126 37.5448 42.9213 38.9486 43.5579 40.1413Z" fill="white"/>
</g>
<defs>
<clipPath id="clip0">
<rect width="25.0865" height="25.0865" fill="white" transform="translate(17.4258 17.1453)"/>
</clipPath>
</defs>
</svg>
