<svg width="59" height="59" viewBox="0 0 59 59" fill="none" xmlns="http://www.w3.org/2000/svg">
<circle cx="29.9688" cy="29.1436" r="29" fill="#F1F2F1"/>
<circle cx="29.9694" cy="29.1435" r="22.1765" fill="#209E02"/>
<g clip-path="url(#clip0)">
<path d="M29.9693 29.1436C26.3667 29.1436 23.4468 32.0646 23.4468 35.6661C23.4468 39.2676 26.3667 42.1886 29.9693 42.1886C33.5719 42.1886 36.4918 39.2676 36.4918 35.6661C36.4918 32.0646 33.5719 29.1436 29.9693 29.1436ZM29.9693 41.1015C26.9722 41.1015 24.5339 38.6632 24.5339 35.6661C24.5339 32.669 26.9722 30.2307 29.9693 30.2307C32.9664 30.2307 35.4047 32.669 35.4047 35.6661C35.4047 38.6632 32.9664 41.1015 29.9693 41.1015ZM29.9693 31.3178C27.5712 31.3178 25.621 33.268 25.621 35.6661C25.621 38.0642 27.5712 40.0144 29.9693 40.0144C32.3674 40.0144 34.3176 38.0642 34.3176 35.6661C34.3176 33.268 32.3674 31.3178 29.9693 31.3178ZM31.0564 37.8403H29.9693V35.6661H28.4745V34.5866C29.6301 34.5866 29.9182 34.1311 30.1563 33.4919H31.0564V37.8403ZM36.7592 16.0986L33.4425 19.3599H26.708L23.1283 16.0986H36.7592ZM37.8256 16.4672L30.6454 27.0032C31.8543 27.0966 32.9946 27.4347 34.0165 27.9739L39.753 19.3599L37.8256 16.4672V16.4672ZM22.089 16.5052L20.1855 19.3599L25.8753 27.9978C26.8907 27.4532 28.0267 27.1086 29.2322 27.0064L22.089 16.5052V16.5052Z" fill="white"/>
</g>
<defs>
<clipPath id="clip0">
<rect width="26.09" height="26.09" fill="white" transform="translate(16.9238 16.0986)"/>
</clipPath>
</defs>
</svg>
