<svg width="13" height="15" viewBox="0 0 13 15" fill="none" xmlns="http://www.w3.org/2000/svg">
<path d="M11.25 4.375H8.75V2.5C8.75 1.11937 7.63063 0 6.25 0C4.86937 0 3.75 1.11937 3.75 2.5V4.375H1.25L0 15H12.5L11.25 4.375ZM4.375 2.5C4.375 1.46625 5.21625 0.625 6.25 0.625C7.28375 0.625 8.125 1.46625 8.125 2.5V4.375H4.375V2.5ZM1.40563 13.75L2.36125 5.625H3.75V6.5625C3.75 6.735 3.89 6.875 4.0625 6.875C4.235 6.875 4.375 6.735 4.375 6.5625V5.625H8.125V6.5625C8.125 6.735 8.265 6.875 8.4375 6.875C8.61 6.875 8.75 6.735 8.75 6.5625V5.625H10.1388L11.0944 13.75H1.40563Z" fill="#414143"/>
</svg>
