<svg width="92" height="91" viewBox="0 0 92 91" fill="none" xmlns="http://www.w3.org/2000/svg">
<path d="M80.4989 1.07812H10.8214C5.20854 1.07812 0.660156 5.85583 0.660156 11.7517V61.9684C0.660156 67.8643 5.20854 72.642 10.8214 72.642H44.5956V86.5685H36.9505C36.1763 86.5685 35.4989 87.2801 35.4989 88.0933C35.4989 88.9066 36.1763 89.6181 36.9505 89.6181H55.0473C55.8214 89.6181 56.4989 88.9066 56.4989 88.0933C56.4989 87.2801 55.8214 86.5685 55.0473 86.5685H47.4021V72.642H80.4989C86.1118 72.642 90.6602 67.8643 90.6602 61.9684V11.7517C90.6602 5.85583 86.1118 1.07812 80.4989 1.07812ZM3.56338 60.342V13.2765H87.7569V60.4436H3.56338V60.342ZM10.8214 4.12772H80.4989C83.9827 4.12772 86.9827 6.77071 87.6602 10.2269H3.75693C4.33758 6.77071 7.33758 4.12772 10.8214 4.12772ZM80.4989 69.5924H10.8214C7.33758 69.5924 4.33758 66.9495 3.66016 63.4932H87.5634C86.9827 66.9495 83.9827 69.5924 80.4989 69.5924Z" fill="#209E02" stroke="#209E02"/>
<path d="M78.8553 30.0507C75.7586 30.0507 73.2424 32.2871 72.565 35.3367H63.4682V26.3912C63.4682 26.2895 63.4682 26.0862 63.3715 25.9846V25.8829C63.3715 25.7813 63.2747 25.578 63.1779 25.4763C63.0811 25.3747 62.9844 25.273 62.8876 25.1713C62.8876 25.1713 62.8876 25.1713 62.7908 25.1713C62.694 25.0697 62.5973 25.0697 62.4037 24.968L45.9521 19.2755C45.6618 19.1738 45.3715 19.1738 45.0811 19.2755L28.9199 24.968C28.8231 24.968 28.6295 25.0697 28.5328 25.1713C28.5328 25.1713 28.5328 25.1713 28.436 25.1713C28.3392 25.273 28.2424 25.3747 28.1457 25.4763C28.0489 25.578 28.0489 25.6796 27.9521 25.8829V25.9846C27.9521 26.0862 27.8553 26.2895 27.8553 26.3912V35.3367H18.7586C18.0811 32.2871 15.565 30.0507 12.4682 30.0507C8.8876 30.0507 5.98438 33.1003 5.98438 36.8615C5.98438 40.6226 8.8876 43.6722 12.4682 43.6722C15.565 43.6722 18.0811 41.4359 18.7586 38.3863H27.8553V47.3318C27.8553 47.3318 27.8553 47.3318 27.8553 47.4334C27.8553 47.5351 27.8553 47.5351 27.8553 47.6367V47.7384V47.84C27.8553 47.84 27.8553 47.9417 27.9521 47.9417C27.9521 47.9417 27.9521 48.0433 28.0489 48.0433C28.0489 48.0433 28.0489 48.145 28.1457 48.145L28.2424 48.2466L28.3392 48.3483L28.436 48.4499L28.5328 48.5516C28.5328 48.5516 28.6295 48.5516 28.6295 48.6533C28.6295 48.6533 28.7263 48.6533 28.7263 48.7549L45.1779 54.4475C45.2747 54.4475 45.4682 54.5491 45.565 54.5491C45.6618 54.5491 45.8553 54.5491 45.9521 54.4475L62.2102 48.6533C62.3069 48.6533 62.3069 48.6533 62.3069 48.5516C62.3069 48.5516 62.4037 48.5516 62.4037 48.4499L62.5005 48.3483L62.5973 48.2466L62.694 48.145L62.7908 48.0433L62.8876 47.9417C62.8876 47.9417 62.8876 47.84 62.9844 47.84C62.9844 47.84 62.9844 47.7384 63.0811 47.7384V47.6367V47.5351C63.0811 47.4334 63.0811 47.4334 63.0811 47.3318C63.0811 47.3318 63.0811 47.3318 63.0811 47.2301V38.2846H72.1779C72.8553 41.3342 75.3715 43.5706 78.4682 43.5706C82.0489 43.5706 84.9521 40.521 84.9521 36.7598C84.9521 32.9987 82.3392 30.0507 78.8553 30.0507ZM12.4682 40.521C10.5328 40.521 8.8876 38.8945 8.8876 36.7598C8.8876 34.7268 10.436 32.9987 12.4682 32.9987C14.4037 32.9987 16.0489 34.6251 16.0489 36.7598C16.0489 38.8945 14.5005 40.521 12.4682 40.521ZM30.8553 28.4243L44.2102 33.202V50.9913L30.8553 46.2136V28.4243ZM47.1134 33.202L60.4682 28.4243V46.2136L47.1134 50.9913V33.202ZM45.565 22.2234L57.3715 26.2895L45.6618 30.4573L33.9521 26.2895L45.565 22.2234ZM78.8553 40.521C76.9199 40.521 75.2747 38.8945 75.2747 36.7598C75.2747 34.7268 76.8231 32.9987 78.8553 32.9987C80.7908 32.9987 82.436 34.6251 82.436 36.7598C82.3392 38.8945 80.7908 40.521 78.8553 40.521Z" fill="#209E02" stroke="#209E02"/>
</svg>
