<svg width="67" height="66" viewBox="0 0 67 66" fill="none" xmlns="http://www.w3.org/2000/svg">
<path d="M64.2127 26.0502H59.1057C58.4846 23.9077 57.6565 21.9034 56.6213 20.0373L60.2099 16.4434C61.1071 15.614 61.1071 14.1626 60.2099 13.3333L53.3777 6.49098C52.5496 5.5925 51.1003 5.5925 50.2722 6.49098L46.6835 10.0849C44.8202 9.0482 42.8188 8.21883 40.6795 7.5968V2.55149C40.6795 1.30744 39.7133 0.339844 38.4711 0.339844H28.8094C27.5671 0.339844 26.601 1.30744 26.601 2.55149V7.5968C24.4616 8.21883 22.4602 9.0482 20.5969 10.0849L17.0082 6.49098C16.1801 5.5925 14.7308 5.5925 13.9027 6.49098L7.07048 13.3333C6.17332 14.1626 6.17332 15.614 7.07048 16.4434L10.6591 20.0373C9.62394 21.9034 8.79579 23.9077 8.17468 26.0502H3.06777C1.82555 26.0502 0.859375 27.0178 0.859375 28.2619V37.9378C0.859375 39.1819 1.82555 40.1495 3.06777 40.1495H8.10566C8.72678 42.292 9.55492 44.2963 10.5901 46.1624L7.00147 49.7563C6.10431 50.5857 6.10431 52.0371 7.00147 52.8664L13.8337 59.7087C14.6618 60.6072 16.1111 60.6072 16.9392 59.7087L20.5279 56.1148C22.3912 57.1515 24.3926 57.9809 26.5319 58.6029V63.6482C26.5319 64.8922 27.4981 65.8598 28.7403 65.8598H38.4021C39.6443 65.8598 40.6104 64.8922 40.6104 63.6482V58.6029C42.6808 58.05 44.6132 57.2206 46.4075 56.1839L38.8161 48.5122C37.5049 48.9269 36.1247 49.2725 34.7444 49.3416C25.7728 49.9636 17.6984 42.6376 17.4913 33.6528C17.4223 31.7176 17.6984 29.8515 18.3195 28.0545C18.5265 27.4325 19.3547 27.2943 19.8378 27.709L29.7755 37.6614C30.1206 38.0069 30.6727 38.0069 31.0177 37.6614L38.264 30.4044C38.6091 30.0588 38.6091 29.5059 38.264 29.1603L28.2573 19.2771C27.7742 18.7933 27.9812 17.9639 28.6023 17.7566C31.3628 16.8581 34.3993 16.6507 37.5739 17.411C43.785 18.9315 48.6159 24.1841 49.6511 30.4735C50.0651 33.2381 49.7891 35.8644 49.03 38.2143L56.8283 46.0241C57.8635 44.2272 58.6227 42.2229 59.1748 40.1495H64.2127C65.4549 40.1495 66.421 39.1819 66.421 37.9378V28.2619C66.421 27.0869 65.4549 26.0502 64.2127 26.0502Z" fill="#209E02"/>
</svg>
