<svg width="71" height="67" viewBox="0 0 71 67" fill="none" xmlns="http://www.w3.org/2000/svg">
<path d="M62.5792 0.90918H8.41804C4.05505 0.90918 0.519531 4.4447 0.519531 8.80769V45.9683C0.519531 50.3313 4.05505 53.8668 8.41804 53.8668H34.6712V64.1725H28.7285C28.1267 64.1725 27.6001 64.699 27.6001 65.3008C27.6001 65.9026 28.1267 66.4292 28.7285 66.4292H42.7954C43.3971 66.4292 43.9237 65.9026 43.9237 65.3008C43.9237 64.699 43.3971 64.1725 42.7954 64.1725H36.8527V53.8668H62.5792C66.9422 53.8668 70.4777 50.3313 70.4777 45.9683V8.80769C70.4777 4.4447 66.9422 0.90918 62.5792 0.90918ZM2.77625 44.7647V9.93605H68.221V44.8399H2.77625V44.7647ZM8.41804 3.1659H62.5792C65.2873 3.1659 67.6192 5.12172 68.1458 7.67933H2.9267C3.37804 5.12172 5.70998 3.1659 8.41804 3.1659ZM62.5792 51.6101H8.41804C5.70998 51.6101 3.37804 49.6543 2.85147 47.0966H68.0706C67.6192 49.6543 65.2873 51.6101 62.5792 51.6101Z" fill="#209E02" stroke="#209E02"/>
<path d="M61.3018 22.348C58.8946 22.348 56.9388 24.0029 56.4122 26.2597H49.3412V19.64C49.3412 19.5647 49.3412 19.4143 49.266 19.3391V19.2638C49.266 19.1886 49.1907 19.0382 49.1155 18.9629C49.0403 18.8877 48.9651 18.8125 48.8898 18.7373C48.8898 18.7373 48.8898 18.7373 48.8146 18.7373C48.7394 18.6621 48.6642 18.6621 48.5137 18.5868L35.7257 14.3743C35.5 14.2991 35.2743 14.2991 35.0487 14.3743L22.4863 18.5868C22.411 18.5868 22.2606 18.6621 22.1854 18.7373C22.1854 18.7373 22.1854 18.7373 22.1101 18.7373C22.0349 18.8125 21.9597 18.8877 21.8845 18.9629C21.8092 19.0382 21.8092 19.1134 21.734 19.2638V19.3391C21.734 19.4143 21.6588 19.5647 21.6588 19.64V26.2597H14.5878C14.0612 24.0029 12.1054 22.348 9.6982 22.348C6.91492 22.348 4.6582 24.6047 4.6582 27.388C4.6582 30.1713 6.91492 32.428 9.6982 32.428C12.1054 32.428 14.0612 30.7731 14.5878 28.5164H21.6588V35.1361C21.6588 35.1361 21.6588 35.1361 21.6588 35.2113C21.6588 35.2865 21.6588 35.2865 21.6588 35.3618V35.437V35.5122C21.6588 35.5122 21.6588 35.5874 21.734 35.5874C21.734 35.5874 21.734 35.6626 21.8092 35.6626C21.8092 35.6626 21.8092 35.7379 21.8845 35.7379L21.9597 35.8131L22.0349 35.8883L22.1101 35.9635L22.1854 36.0388C22.1854 36.0388 22.2606 36.0388 22.2606 36.114C22.2606 36.114 22.3358 36.114 22.3358 36.1892L35.1239 40.4017C35.1991 40.4017 35.3495 40.477 35.4248 40.477C35.5 40.477 35.6504 40.477 35.7257 40.4017L48.3633 36.114C48.4385 36.114 48.4385 36.114 48.4385 36.0388C48.4385 36.0388 48.5137 36.0388 48.5137 35.9635L48.589 35.8883L48.6642 35.8131L48.7394 35.7379L48.8146 35.6626L48.8898 35.5874C48.8898 35.5874 48.8898 35.5122 48.9651 35.5122C48.9651 35.5122 48.9651 35.437 49.0403 35.437V35.3618V35.2865C49.0403 35.2113 49.0403 35.2113 49.0403 35.1361C49.0403 35.1361 49.0403 35.1361 49.0403 35.0609V28.4412H56.1113C56.6379 30.6979 58.5937 32.3528 61.0009 32.3528C63.7842 32.3528 66.0409 30.0961 66.0409 27.3128C66.0409 24.5295 64.0098 22.348 61.3018 22.348ZM9.6982 30.0961C8.19373 30.0961 6.91492 28.8925 6.91492 27.3128C6.91492 25.8083 8.1185 24.5295 9.6982 24.5295C11.2027 24.5295 12.4815 25.7331 12.4815 27.3128C12.4815 28.8925 11.2779 30.0961 9.6982 30.0961ZM23.9907 21.1444L34.3716 24.68V37.8441L23.9907 34.3086V21.1444ZM36.6284 24.68L47.0093 21.1444V34.3086L36.6284 37.8441V24.68ZM35.4248 16.5558L44.6021 19.5647L35.5 22.6489L26.3979 19.5647L35.4248 16.5558ZM61.3018 30.0961C59.7973 30.0961 58.5185 28.8925 58.5185 27.3128C58.5185 25.8083 59.7221 24.5295 61.3018 24.5295C62.8063 24.5295 64.0851 25.7331 64.0851 27.3128C64.0098 28.8925 62.8063 30.0961 61.3018 30.0961Z" fill="#209E02" stroke="#209E02"/>
</svg>
