<svg width="101" height="101" viewBox="0 0 101 101" fill="none" xmlns="http://www.w3.org/2000/svg">
<path d="M96.6986 39.4339H88.9286C87.9836 36.1741 86.7236 33.1247 85.1486 30.2855L90.6086 24.8174C91.9736 23.5556 91.9736 21.3473 90.6086 20.0855L80.2136 9.67517C78.9536 8.30816 76.7486 8.30816 75.4886 9.67517L70.0286 15.1432C67.1936 13.5659 64.1486 12.304 60.8936 11.3576V3.68136C60.8936 1.78857 59.4236 0.316406 57.5336 0.316406H42.8336C40.9436 0.316406 39.4736 1.78857 39.4736 3.68136V11.3576C36.2186 12.304 33.1736 13.5659 30.3386 15.1432L24.8786 9.67517C23.6186 8.30816 21.4136 8.30816 20.1536 9.67517L9.75859 20.0855C8.39359 21.3473 8.39359 23.5556 9.75859 24.8174L15.2186 30.2855C13.6436 33.1247 12.3836 36.1741 11.4386 39.4339H3.66859C1.77859 39.4339 0.308594 40.9061 0.308594 42.7989V57.5205C0.308594 59.4133 1.77859 60.8855 3.66859 60.8855H11.3336C12.2786 64.1453 13.5386 67.1948 15.1136 70.0339L9.65359 75.502C8.28859 76.7638 8.28859 78.9721 9.65359 80.2339L20.0486 90.6443C21.3086 92.0113 23.5136 92.0113 24.7736 90.6443L30.2336 85.1762C33.0686 86.7535 36.1136 88.0154 39.3686 88.9618V96.6381C39.3686 98.5309 40.8386 100.003 42.7286 100.003H57.4286C59.3186 100.003 60.7886 98.5309 60.7886 96.6381V88.9618C63.9386 88.1205 66.8786 86.8587 69.6086 85.2814L58.0586 73.6092C56.0636 74.2401 53.9636 74.7659 51.8636 74.8711C38.2136 75.8175 25.9286 64.6711 25.6136 51.001C25.5086 48.0566 25.9286 45.2174 26.8736 42.4834C27.1886 41.537 28.4486 41.3267 29.1836 41.9576L44.3036 57.0999C44.8286 57.6257 45.6686 57.6257 46.1936 57.0999L57.2186 46.0587C57.7436 45.5329 57.7436 44.6917 57.2186 44.1659L41.9936 29.1288C41.2586 28.3927 41.5736 27.1308 42.5186 26.8154C46.7186 25.4484 51.3386 25.1329 56.1686 26.2896C65.6186 28.603 72.9686 36.5948 74.5436 46.1638C75.1736 50.37 74.7536 54.3659 73.5986 57.9412L85.4636 69.8236C87.0386 67.0896 88.1936 64.0401 89.0336 60.8855H96.6986C98.5886 60.8855 100.059 59.4133 100.059 57.5205V42.7989C100.059 41.0113 98.5886 39.4339 96.6986 39.4339Z" fill="#209E02"/>
</svg>
