<svg width="15" height="16" viewBox="0 0 15 16" fill="none" xmlns="http://www.w3.org/2000/svg">
<path d="M13.6741 1.14844H10.058L9.77477 0.600591C9.71477 0.483466 9.62234 0.384943 9.50788 0.316106C9.39343 0.247269 9.26148 0.210849 9.1269 0.210943H5.68259C5.54831 0.210441 5.41659 0.246725 5.30254 0.315639C5.18849 0.384553 5.09671 0.483308 5.03772 0.600591L4.75446 1.14844H1.13839C1.01052 1.14844 0.887886 1.19783 0.797466 1.28574C0.707047 1.37364 0.65625 1.49287 0.65625 1.61719L0.65625 2.55469C0.65625 2.67901 0.707047 2.79824 0.797466 2.88615C0.887886 2.97406 1.01052 3.02344 1.13839 3.02344H13.6741C13.802 3.02344 13.9246 2.97406 14.015 2.88615C14.1055 2.79824 14.1562 2.67901 14.1562 2.55469V1.61719C14.1562 1.49287 14.1055 1.37364 14.015 1.28574C13.9246 1.19783 13.802 1.14844 13.6741 1.14844V1.14844ZM2.25937 13.8926C2.28237 14.2496 2.44445 14.5847 2.71261 14.8296C2.98077 15.0745 3.33485 15.2109 3.70279 15.2109H11.1097C11.4776 15.2109 11.8317 15.0745 12.0999 14.8296C12.3681 14.5847 12.5301 14.2496 12.5531 13.8926L13.192 3.96094H1.62054L2.25937 13.8926Z" fill="#EA4B4B"/>
</svg>
