<svg width="20" height="21" viewBox="0 0 20 21" fill="none" xmlns="http://www.w3.org/2000/svg">
<path d="M15.1908 7.71461C14.809 7.88209 14.4022 7.9931 13.978 8.047C14.4144 7.78648 14.7474 7.37708 14.904 6.88362C14.4971 7.12618 14.048 7.29751 13.5693 7.39312C13.183 6.9818 12.6324 6.72705 12.0318 6.72705C10.8665 6.72705 9.92834 7.6729 9.92834 8.83242C9.92834 8.99926 9.94246 9.15968 9.97711 9.31241C8.22723 9.22706 6.67884 8.38838 5.63867 7.11078C5.45707 7.42585 5.35055 7.78648 5.35055 8.1747C5.35055 8.90365 5.72594 9.54983 6.28549 9.92393C5.94732 9.91752 5.61557 9.81934 5.33451 9.66469C5.33451 9.67111 5.33451 9.67945 5.33451 9.68779C5.33451 10.7106 6.0641 11.5602 7.02086 11.7559C6.84953 11.8028 6.6628 11.8252 6.46901 11.8252C6.33425 11.8252 6.19822 11.8175 6.07052 11.7893C6.34324 12.6229 7.11711 13.2357 8.03729 13.2556C7.32117 13.8158 6.4119 14.1533 5.42755 14.1533C5.25494 14.1533 5.08938 14.1456 4.92383 14.1244C5.8562 14.7257 6.96118 15.069 8.15279 15.069C12.026 15.069 14.1436 11.8605 14.1436 9.07947C14.1436 8.98643 14.1404 8.89659 14.1359 8.8074C14.5536 8.51094 14.9046 8.14069 15.1908 7.71461Z" fill="#414143"/>
<circle cx="9.97674" cy="10.6003" r="9.18182" stroke="#414143"/>
</svg>
