<svg width="19" height="16" viewBox="0 0 19 16" fill="none" xmlns="http://www.w3.org/2000/svg">
<path d="M18.4578 2.64914C17.7787 2.95062 17.0488 3.15365 16.2828 3.24517C17.065 2.77681 17.6656 2.03465 17.9479 1.15022C17.2165 1.58398 16.4059 1.8993 15.543 2.06926C14.8531 1.33326 13.8679 0.873352 12.7789 0.873352C10.334 0.873352 8.53748 3.15442 9.08967 5.5224C5.9434 5.36474 3.1532 3.85736 1.28512 1.56629C0.293017 3.26825 0.770611 5.49471 2.45642 6.62217C1.83655 6.60218 1.25205 6.43221 0.742155 6.14842C0.700625 7.90268 1.95806 9.54388 3.77922 9.90919C3.24626 10.0538 2.66253 10.0876 2.06881 9.97379C2.55025 11.4781 3.94842 12.5725 5.60654 12.6033C4.01456 13.8515 2.00882 14.409 0 14.1722C1.67581 15.2466 3.66694 15.8734 5.80496 15.8734C12.8358 15.8734 16.8081 9.93534 16.5681 4.60951C17.308 4.075 17.9502 3.40822 18.4578 2.64914V2.64914Z" fill="#F1F2F1"/>
</svg>
