<svg width="17" height="17" viewBox="0 0 17 17" fill="none" xmlns="http://www.w3.org/2000/svg">
<path d="M8.67187 8.57925C9.52712 8.57925 10.3632 8.32767 11.0743 7.85632C11.7854 7.38497 12.3396 6.71502 12.6669 5.93119C12.9942 5.14737 13.0799 4.28487 12.913 3.45276C12.7462 2.62066 12.3343 1.85632 11.7296 1.2564C11.1248 0.656489 10.3543 0.247942 9.51549 0.0824259C8.67667 -0.0830902 7.80722 0.00185863 7.01707 0.32653C6.22692 0.651202 5.55157 1.20101 5.07642 1.90644C4.60127 2.61186 4.34766 3.44122 4.34766 4.28963C4.34766 5.42731 4.80324 6.51839 5.61419 7.32285C6.42514 8.12731 7.52502 8.57925 8.67187 8.57925ZM8.67187 0.635502C9.40042 0.635502 10.1126 0.849813 10.7184 1.25133C11.3241 1.65285 11.7963 2.22355 12.0751 2.89125C12.3539 3.55896 12.4268 4.29368 12.2847 5.00251C12.1426 5.71134 11.7917 6.36244 11.2766 6.87348C10.7614 7.38452 10.1051 7.73254 9.39051 7.87354C8.67596 8.01453 7.93531 7.94217 7.26222 7.6656C6.58914 7.38902 6.01384 6.92067 5.60908 6.31975C5.20432 5.71883 4.98828 5.01234 4.98828 4.28963C4.98828 3.32049 5.37637 2.39105 6.06718 1.70577C6.75799 1.02049 7.69492 0.635502 8.67187 0.635502Z" fill="#209E02"/>
<path d="M10.2734 9.53271H7.07031C5.28632 9.53271 3.57539 10.2357 2.31391 11.4871C1.05244 12.7385 0.34375 14.4357 0.34375 16.2055C0.34375 16.2897 0.377497 16.3706 0.437567 16.4301C0.497638 16.4897 0.57911 16.5232 0.664062 16.5232H16.6797C16.7646 16.5232 16.8461 16.4897 16.9062 16.4301C16.9663 16.3706 17 16.2897 17 16.2055C17 14.4357 16.2913 12.7385 15.0298 11.4871C13.7684 10.2357 12.0574 9.53271 10.2734 9.53271ZM0.992383 15.8877C1.07633 14.3443 1.75306 12.8914 2.88349 11.8276C4.01392 10.7638 5.51217 10.17 7.07031 10.1682H10.2734C11.833 10.168 13.3332 10.7609 14.4654 11.8249C15.5975 12.8889 16.2754 14.3429 16.3594 15.8877H0.992383Z" fill="#209E02"/>
</svg>
