<svg width="15" height="15" viewBox="0 0 15 15" fill="none" xmlns="http://www.w3.org/2000/svg">
<path d="M0.0449219 15L1.0993 11.1481C0.448672 10.0206 0.106797 8.7425 0.107422 7.43187C0.109297 3.33437 3.44367 0 7.54055 0C9.52867 0.000625 11.3949 0.775 12.7987 2.18C14.2018 3.585 14.9743 5.4525 14.9737 7.43875C14.9718 11.5369 11.6374 14.8713 7.54055 14.8713C6.2968 14.8706 5.07117 14.5588 3.98555 13.9663L0.0449219 15V15ZM4.16805 12.6206C5.21555 13.2425 6.21555 13.615 7.53805 13.6156C10.943 13.6156 13.7168 10.8444 13.7187 7.4375C13.7199 4.02375 10.9593 1.25625 7.54305 1.255C4.13555 1.255 1.36367 4.02625 1.36242 7.4325C1.3618 8.82313 1.7693 9.86437 2.45367 10.9537L1.8293 13.2337L4.16805 12.6206V12.6206ZM11.2849 9.20563C11.2387 9.12813 11.1149 9.08187 10.9287 8.98875C10.743 8.89562 9.82992 8.44625 9.6593 8.38437C9.4893 8.3225 9.36555 8.29125 9.24117 8.4775C9.11742 8.66313 8.76117 9.08188 8.65305 9.20563C8.54492 9.32938 8.43617 9.345 8.25055 9.25188C8.06492 9.15875 7.46617 8.96313 6.7568 8.33C6.20492 7.8375 5.8318 7.22938 5.72367 7.04313C5.61555 6.8575 5.71242 6.75688 5.80492 6.66438C5.88867 6.58125 5.99055 6.4475 6.08367 6.33875C6.17805 6.23125 6.20867 6.15375 6.27117 6.02938C6.33305 5.90563 6.30242 5.79688 6.25555 5.70375C6.20867 5.61125 5.83742 4.69688 5.68305 4.325C5.5318 3.96313 5.37867 4.01187 5.26492 4.00625L4.90867 4C4.78492 4 4.58367 4.04625 4.41367 4.2325C4.24367 4.41875 3.76367 4.8675 3.76367 5.78188C3.76367 6.69625 4.4293 7.57937 4.5218 7.70312C4.61492 7.82687 5.83117 9.70313 7.6943 10.5075C8.13742 10.6988 8.48367 10.8131 8.75305 10.8987C9.19805 11.04 9.60305 11.02 9.92305 10.9725C10.2799 10.9194 11.0218 10.5231 11.1768 10.0894C11.3318 9.655 11.3318 9.28313 11.2849 9.20563V9.20563Z" fill="#209E02"/>
</svg>
